<?xml version="1.0" encoding="utf-8"?>
<!-- Generator: Adobe Illustrator 18.0.0, SVG Export Plug-In . SVG Version: 6.00 Build 0)  -->
<!DOCTYPE svg PUBLIC "-//W3C//DTD SVG 1.1//EN" "http://www.w3.org/Graphics/SVG/1.1/DTD/svg11.dtd">
<svg version="1.1" id="Layer_1" xmlns="http://www.w3.org/2000/svg" xmlns:xlink="http://www.w3.org/1999/xlink" x="0px" y="0px"
	 viewBox="0 0 800 800" enable-background="new 0 0 800 800" xml:space="preserve">
<g>
	<path fill="#FFFFFF" d="M182.7,400.7c-54.8,0-109.6-0.1-164.4,0.1c-5.8,0-8-0.9-7.6-7.4C17.5,259.6,79.5,160,196.8,95.6
		c46.2-25.4,96.7-36.5,149.3-38.4c7.1-0.3,8.1,2.1,8.1,8.4c-0.2,109.1-0.2,218.2,0,327.3c0,6.4-1.5,8-7.9,8
		C291.8,400.5,237.2,400.7,182.7,400.7z"/>
	<path fill="#FFFFFF" d="M571.7,353.9c-54.5,0-109-0.1-163.6,0.2c-6.2,0-7.5-1.7-7.5-7.6c0.2-109,0.2-218.1,0-327.1
		c0-6.3,1.8-7.6,7.7-7.3c125.5,6,222.1,61.8,288.2,168.7c31.3,50.6,45.6,106.5,47.6,165.8c0.2,6.1-1.3,7.6-7.4,7.6
		C681.8,353.8,626.7,353.9,571.7,353.9z"/>
	<path fill="#FFFFFF" d="M617.8,400.6c54.8,0,109.5,0.1,164.3-0.2c6.1,0,7.7,1.5,7.4,7.6c-6.2,127.2-63.8,223.9-173,289.2
		c-50.1,30-105.3,43.5-163.5,45.3c-5.3,0.2-7-0.8-7-6.6c0.2-109.5,0.2-219.1,0-328.6c0-6.3,2.3-6.9,7.5-6.9
		C508.2,400.7,563,400.6,617.8,400.6z"/>
	<path fill="#FFFFFF" d="M228.5,445.9c54.5,0,109.1,0.1,163.6-0.1c5.4,0,7.4,1,7.4,7c-0.2,109.3-0.2,218.6,0,328
		c0,5.7-1.4,7.3-7.2,7.1c-125.4-5.9-221.6-61.8-287.4-168.7c-31.2-50.6-45.4-106.6-47.4-165.8c-0.2-6.2,1.5-7.6,7.5-7.5
		C119.5,446,174,445.9,228.5,445.9z"/>
</g>
</svg>
