<?xml version="1.0" standalone="no"?>
<!DOCTYPE svg PUBLIC "-//W3C//DTD SVG 20010904//EN"
 "http://www.w3.org/TR/2001/REC-SVG-20010904/DTD/svg10.dtd">
<svg version="1.0" xmlns="http://www.w3.org/2000/svg"
 width="532.000000pt" height="532.000000pt" viewBox="0 0 532.000000 532.000000"
 preserveAspectRatio="xMidYMid meet">
<metadata>
Created by potrace 1.11, written by Peter Selinger 2001-2013
</metadata>
<g transform="translate(0.000000,532.000000) scale(0.100000,-0.100000)"
fill="#000000" stroke="none">
<path d="M2670 4152 l0 -1172 1172 0 1171 0 -6 138 c-7 146 -26 279 -57 403
-11 42 -21 85 -23 95 -4 20 -7 28 -26 84 -7 19 -14 42 -16 50 -2 8 -4 17 -5
20 -1 3 -2 8 -1 13 0 4 -4 7 -11 7 -6 0 -9 3 -5 6 3 4 0 19 -9 35 -8 16 -14
30 -13 31 7 23 -179 370 -250 464 -9 12 -23 32 -31 45 -8 12 -25 33 -36 45
-12 13 -24 28 -26 34 -4 12 -128 149 -181 199 -137 129 -174 162 -189 167 -10
3 -18 9 -18 13 0 9 -195 141 -270 183 -153 86 -272 141 -296 137 -4 0 -10 4
-14 11 -4 6 -19 13 -35 16 -16 3 -33 8 -39 12 -6 3 -15 7 -21 9 -5 1 -26 7
-45 14 -49 17 -64 22 -72 24 -5 2 -9 3 -10 5 -2 1 -12 3 -23 4 -11 2 -63 12
-115 24 -145 33 -213 42 -362 49 l-138 6 0 -1171z"/>
<path d="M2115 5003 c-117 -13 -202 -27 -275 -45 -47 -10 -94 -21 -105 -22
-11 -2 -27 -6 -35 -9 -76 -29 -190 -64 -194 -59 -3 3 -6 0 -6 -7 0 -7 -4 -9
-10 -6 -5 3 -10 2 -10 -3 0 -5 -6 -9 -12 -9 -7 0 -33 -9 -58 -20 -25 -11 -49
-20 -54 -20 -5 -1 -12 -5 -15 -10 -3 -4 -42 -25 -86 -47 -44 -21 -124 -67
-178 -102 -94 -62 -110 -73 -142 -102 -8 -7 -15 -11 -15 -7 0 3 -11 -6 -25
-21 -14 -15 -25 -23 -25 -18 0 4 -15 -6 -33 -23 -17 -17 -57 -54 -87 -83 -30
-28 -62 -58 -70 -67 -8 -9 -40 -43 -70 -77 -30 -33 -65 -70 -78 -83 -12 -13
-22 -28 -22 -33 0 -4 -3 -10 -8 -12 -10 -4 -72 -84 -72 -92 0 -4 -9 -16 -20
-28 -10 -11 -26 -36 -35 -54 -8 -18 -21 -39 -28 -46 -27 -30 -138 -244 -130
-252 3 -3 1 -6 -5 -6 -11 0 -28 -38 -23 -54 1 -5 -3 -12 -9 -16 -6 -4 -13 -13
-14 -21 -2 -8 -6 -22 -9 -31 -9 -24 -16 -47 -18 -56 0 -4 -5 -13 -11 -19 -6
-7 -7 -13 -4 -13 4 0 1 -10 -6 -22 -7 -13 -13 -26 -14 -30 -1 -5 -3 -11 -4
-15 -1 -5 -2 -12 -1 -16 1 -4 -4 -17 -10 -29 -6 -11 -13 -30 -14 -42 -2 -11
-15 -75 -29 -141 -29 -142 -46 -283 -46 -395 l0 -80 1170 0 1170 0 0 1175 0
1175 -97 -1 c-54 -1 -111 -4 -128 -6z"/>
<path d="M2980 1490 l0 -1170 80 0 c132 0 313 24 491 66 13 3 33 7 44 7 11 1
23 6 26 10 3 4 17 9 30 11 13 2 38 9 54 16 17 6 35 13 40 14 14 4 46 16 75 28
14 6 33 13 44 15 26 5 262 125 344 175 73 45 133 87 144 103 5 7 8 7 8 0 0 -7
3 -7 8 0 4 6 33 30 65 53 55 41 163 138 211 190 12 12 54 57 94 99 39 43 72
80 72 84 0 3 10 17 23 31 31 35 56 71 57 83 1 6 8 14 16 18 8 4 14 15 14 22 0
8 5 15 10 15 6 0 14 8 17 18 4 9 21 40 39 67 40 64 139 258 136 268 -1 4 3 7
9 7 5 0 8 4 4 9 -3 5 -1 12 5 16 6 4 8 11 5 16 -4 5 -1 9 5 9 7 0 10 6 7 14
-3 7 0 19 6 25 10 10 17 30 19 59 1 6 5 12 10 12 4 0 7 3 6 8 -1 4 4 23 11 42
7 19 15 46 17 60 2 14 8 26 14 28 5 2 8 8 5 12 -3 5 3 44 14 87 32 126 51 258
58 406 l6 137 -1171 0 -1172 0 0 -1170z"/>
<path d="M310 2270 c0 -113 17 -254 47 -395 14 -66 26 -129 27 -140 0 -11 4
-22 7 -25 4 -3 14 -31 23 -63 9 -32 21 -70 27 -85 6 -15 10 -28 10 -30 -1 -1
6 -16 14 -32 9 -17 13 -30 9 -30 -4 0 -1 -6 5 -14 7 -8 14 -24 16 -37 3 -12
10 -26 17 -31 7 -4 10 -8 7 -8 -17 0 207 -390 240 -420 4 -3 26 -32 51 -65 24
-33 66 -81 92 -108 27 -27 60 -64 74 -83 15 -19 30 -34 34 -34 4 0 35 -26 68
-59 91 -88 260 -212 402 -293 100 -58 243 -127 251 -122 5 3 9 0 9 -6 0 -6 4
-8 10 -5 5 3 10 1 10 -5 0 -7 7 -10 15 -6 8 3 15 1 15 -5 0 -6 4 -7 10 -4 5 3
10 1 10 -6 0 -7 3 -9 7 -6 3 4 12 2 20 -4 7 -6 13 -8 13 -4 0 4 7 2 15 -5 8
-7 15 -9 15 -6 0 4 10 1 23 -6 12 -7 33 -14 47 -16 14 -2 27 -7 28 -13 2 -5 7
-7 11 -5 4 3 41 -4 82 -15 128 -34 299 -60 442 -66 l137 -6 0 1171 0 1172
-1170 0 -1170 0 0 -80z"/>
</g>
</svg>
