<?xml version="1.0" encoding="utf-8"?>
<!-- Generator: Adobe Illustrator 18.0.0, SVG Export Plug-In . SVG Version: 6.00 Build 0)  -->
<!DOCTYPE svg PUBLIC "-//W3C//DTD SVG 1.1//EN" "http://www.w3.org/Graphics/SVG/1.1/DTD/svg11.dtd">
<svg version="1.1" id="Layer_1" xmlns="http://www.w3.org/2000/svg" xmlns:xlink="http://www.w3.org/1999/xlink" x="0px" y="0px"
	 viewBox="0 0 654 760" enable-background="new 0 0 654 760" xml:space="preserve">
<g>
	<path d="M635.6,375.7c-3.5,118-38.4,215.5-122.2,291.7c-110.6,100.3-274,95.4-379.2-10.8C70.9,592.7,36.7,514.9,26.8,426.5
		c-10.3-91.6,7.4-178,55.8-256.9C126.3,98.4,186.8,47.6,269.7,28.5c89.9-20.7,170,2.4,239.2,61.6C578.3,149.4,616,226.6,629.7,316
		C633.1,338,634.1,360.4,635.6,375.7z M388.5,481.7c-2.5,1.2-5.1,2.3-8,3.6c2.3-3.3,4.1-5.9,5.3-7.8c-3.4,0.3-6.2,0.1-8.7,1
		c-1.9,0.7-3.3,2.7-4.9,4.1c3.9,3.4,7.4,7.9,12,9.7c4.2,1.7,9.6,0.4,14.1,0.4c1.1-4.8,2.2-9.1,3.2-13.3c0.6-5.2,1.2-10.3-5.4-12.7
		C393.4,472,390.9,476.9,388.5,481.7z M496.6,616.9c9.6,7.9,19.3,15.8,28.9,23.7c0.7-0.8,1.4-1.7,2.1-2.5
		c-12.8-10.6-25.6-21.3-38.4-31.9c-0.7,0.7-1.3,1.5-2,2.2c0.6,1,1.3,2,1.9,2.9c-5.3-3.5-10.5-6.9-15.8-10.4c-0.3,0.3-0.7,0.6-1,1
		c5.6,5.8,11.2,11.6,16.8,17.4c-10.7-9.4-21.4-18.7-34.2-29.9c3.7,6.1,6.1,9.9,8.4,13.8c-7.3-9.2-14.6-18.4-22.6-28.3
		c0.5,3.1,0.8,5.1,1.3,8.7c-12.1-13-22.9-24.7-33.7-36.3c-1.1,0.8-2.1,1.5-3.2,2.3c2.1,4.9,4,10,6.5,14.8
		c3.3,6.4,7.1,12.6,10.7,18.9c-13.3-14.4-26.2-29.2-40-43.1c-7.2-7.2-8.1-12.9-3.4-22.4c4.5-9.2,10.8-4.5,17-6.4
		c-3.9-2.9-8.3-3.9-12.2-5.8c-3-1.5-5.9-3.9-8.1-6.4c-6.1-6.8-11.6-14.2-17.8-20.9c-4.7-5.1-12.9-8-11.5-16.8
		c2.2-13.8-1.6-25.7-11.6-34.7c-11-9.8-14.6-21.7-14.2-35.6c4.9-5.7,9.7-11.4,15.8-18.6c-4.3,2.1-6.7,3.3-9,4.4
		c-0.5-0.9-1.1-1.8-1.6-2.7c4.7-3.5,9.4-6.9,13.6-10c1.1,13.9,0.1,26.3,3.6,37.3c3.5,11.3,11.4,21.2,17,31.1
		c1.9-8.3-3.5-15.6-8.5-22.8c-6.2-9-11.7-18.2-9.2-29.5c0.8-3.8,4.4-6.9,6.1-9.4c3.3,9.8,5.1,18.3,9,25.9c2.5,4.7,8,7.9,12.1,11.8
		c8.3,7.9,12.1,17.2,9,28.8c-0.8,2.8-0.5,5.9-0.7,8.9c0.6,0.1,1.2,0.1,1.9,0.2c1.7-2.9,3.4-5.8,5.2-8.9c2.3,2.6,4.2,4.6,6,6.6
		c0.5-0.3,1-0.6,1.5-1c-6.1-12.2-12.3-24.4-18.4-36.6c8-3.3,16.3,0,15.2,7.4c-1.6,10.6,4.7,17.2,9.8,24.5c4.9,7,11.1,13.2,16.4,19.6
		c3.2-4.3,2.4-13.4-3.6-18.5c-8.6-7.4-17.4-14.5-14.3-28.1c0.5-2-1.9-4.7-3-7c-1.6-2-3-4.2-4.8-6.1c-13-13.3-18.6-28.9-1.9-47.8
		c-0.9,6.9-1.9,13.8-2.8,20.7c0.5,0.1,1.1,0.2,1.6,0.3c1-2,2.1-4.1,3.8-7.5c1.1,5.8,2,10.3,2.8,14.7c16.2,6.2,22.8,18.4,21.8,35.8
		c3.1-3.1,7.4-7.3,6.6-8.6c-6.5-10.8-13.9-21-21.2-31.2c-0.2-0.3-2.7,1.1-4.1,1.7c-1-11.6-1.9-23.3-2.9-34.9c0.5-0.3,0.9-0.7,1.4-1
		c2.4,3.4,4.9,6.9,7.3,10.3c1.2,4.4,2.5,8.7,3.7,13.1c3.9,4.7,7.1,10.1,11.7,14c7.6,6.4,12.5,12.6,9.7,23.8
		c-1.5,5.8,0.6,13.1,2.8,19.1c3.3,9.2,8,17.9,11.6,25.7c0.4-2.4,1.1-6.4,1.8-10.4c1.2-0.3,2.4-0.7,3.6-1c4,7.2,8,14.5,12.7,22.9
		c-5.1,0.7-7.9,1-11.7,1.5c1.9,8,6.1,16.2,5.2,23.7c-1.3,10.9,5.6,15,11.2,21.4c7.7,8.8,4.8,16.3-5.7,17.7c5.6,5.5,7.9,6.7,13.4,3
		c12.1-8.2,11.6-20.5,10.1-33.5c1.7,3.4,3.4,6.8,5,10.2c0.8-0.2,1.6-0.4,2.4-0.6c-0.8-5.5-1.7-11-2.5-16.5c0.6-0.4,1.3-0.9,1.9-1.3
		c2.4,3.1,4.7,6.2,5.3,6.9c4.4-5,9.4-10.8,15.3-17.5c0,0.4,0-2.2-0.4-4.7c-1-7.7,0.1-16.8-3.6-22.7c-6.2-9.9-8.2-18.7-5.1-29.9
		c3.3-12-3.4-22.8-14.6-27.6c-3-1.3-5.4-4-8.5-6.3c4.8-2,9-3,12.2-5.4c2.2-1.7,2.9-5.3,4.3-8c-7-2-14.1-6-20.9-5.6
		c-6.8,0.4-2.5,5.8-1.1,9.7c1.2,3.5,0.6,7.7,0.8,12c-10.6-8.2-10.2-10.2-5.7-20.9c4.9-11.7,13.9-9.1,22.6-8.9c3.3,0.1,6.7,0,11.5,0
		c-12.4-21.6-21.8-25.3-44.3-17.9c4-10.1,7.5-18.8,11-27.6c0.8,0.2,1.5,0.5,2.3,0.7c0.3,5.5,0.6,11,0.9,17c2.7-0.7,3.7-0.8,4.6-1.1
		c9.4-2.8,18.3-9.8,28.3,0.3c2.6,2.7,9.7,0.9,14.8,1.2c-0.7-4.3-0.4-9.1-2.2-12.9c-8.6-18.8-18-37.1-26.5-55.9
		c-2.5-5.6-3.6-12.1-4.3-18.2c-1.7-14.5-2.4-29.1-4.1-43.5c-1.3-11.2-3.7-22.2-5.3-33.3c-2.3-15.5-8.8-28.6-21-38.7l0.3,0.4
		c-7.4-7.9-16.7-9.2-26.4-6.5c-12.3,3.4-24.3,7.9-37.3,12.2c-1.7-0.4-5-1.3-8.2-2.2c-3-0.8-6.1-1.6-9.8-2.6c7.5-3.4,12.5-6.3,18-8.2
		c5.9-1.9,12.1-2.9,19.7-4.6c2-7,9.6-6.3,18.1-4.4c-10.9-12.4-25.2-20-38.6-17.9c-13.8,2.2-26.2,0.7-37.9-6.9l-0.5-0.2
		c-2-1.9-4-3.7-7.4-7c9.1-1.1,16.3-2,23.4-2.9c0-0.5-0.1-1-0.1-1.5c-6.6-0.7-13.2-1.4-19.8-2.1c0-0.4,0-0.8,0-1.2
		c4.7-1.2,9.3-2.3,14-3.5c-0.1-0.4-0.2-0.9-0.3-1.3c-5.9,0-11.8,0-17.7,0c0-0.3,0-0.7-0.1-1c7.5-1,14.9-2,22.4-2.9
		c0-0.4,0-0.7,0-1.1c-7.6-1-15.2-2-22.8-3c0-0.5,0-1,0-1.5c5.6-0.8,11.2-1.6,16.8-2.4c0-0.7-0.1-1.3-0.1-2c-5.5-0.8-11-1.6-17.9-2.6
		c4.9-1.4,8.1-2.4,12.5-3.7c-3.5-0.9-5.5-1.4-8.8-2.3c6-1.6,10.4-2.7,16.5-4.3c-6.4-1.5-10.8-2.5-16.8-3.9c7.8-1.3,13.9-2.3,20-3.3
		c-0.1-0.9-0.2-1.9-0.2-2.8c-9.9,0-19.8,0.9-29.5-0.2c-32.6-3.5-63.7,3.5-93.8,14.4c-78,28-132.6,82.5-170,154.9
		c-41,79.3-52.7,163.5-38.1,251.3c3.5,20.8,9.6,41.1,15.2,64.4c15.8-14.9,30.6-26.4,42.3-40.6c14.1-17,29.9-31.1,49-41.9
		c8.4-4.7,16.5-10.1,24.9-14.7c5.3-2.9,6.1-6.4,3.4-11.4c6.3,8.3,13.3,15.1,22.7,13.8c-7.9-7.8-16.6-16.2-24.1-23.5
		c0.3,1.6,0.9,5.8,1.6,10c-7.8-12.7-6.5-24.9,0.7-37.5c4.5-7.9,10.7-15.8,5.6-25.9c-0.2-0.4,0.3-1.1,0.6-2.3
		c1.2,2.2,2.2,4.2,4.1,7.6c7.4-13.6,12.9-25,19.5-35.6c8.8-14.3,18.5-28,27.8-42c-7,19.2-7.3,38.1,2.7,56.6
		c-0.9,0.2-1.9,0.5-2.8,0.7c-3.8-11.4-7.7-22.8-11.5-34.2c-1.9,13.7-0.2,26.7,9.1,38.3c-0.8,0.3-1.6,0.7-2.3,1
		c-3.6-5.7-7.2-11.3-10.9-17c1.1,16.1,6.8,32.6-2.2,51.3c2.8-16,4.4-29.1-1.1-41.7c-0.7,8.6,0.9,17.6-1.2,25.6
		c-2,7.6-7.9,14.1-12.1,21.1c-0.9-0.5-1.7-1-2.6-1.5c9.7-9.6,14.6-28.1,11.9-47.2c-0.9,1.9-1.8,3-1.9,4.1
		c-1.7,17.9-6.7,34.1-19,48.1c-6.5,7.4-5.8,17.1,0.7,26.2c-0.1-15,0.5-16.5,8.1-21.7c-5.9,27.6,7.6,40.2,37.6,35.6c0-2.8,0-5.6,0-9
		c1.1-0.3,3.8-0.9,7.9-1.8c-23.3-7.4-28.2-13.4-26.1-30.2c5.4,16.8,10.8,22.1,25.6,22c-31.6-12.6-16.2-33.1-12.8-52.5
		c3.9,2.1,7.3,3.9,10.5,5.5c-8.6,26.2-8.4,27.4,8.3,39.9c-17.2-3.3-18.7-15.6-18.1-29.4c-6.5,13.6-2.8,25.7,8.5,30.9
		c10.5,4.9,19.3,3.3,22.9-4.3c-8.8-1-18.4-2.3-20.9-12.2c-1.5-6,0.8-13,1.4-19.5c0.9,0.1,1.8,0.2,2.7,0.2
		c5.4,20.7,8.2,23.8,19.4,21.3c-0.8-1.1-1.5-2.2-2.2-3.2c4.1,0.7,8.2,1.5,12.3,2.2c0-0.6,0-1.1,0-1.7c-5.5-3.8-11.1-7.6-16.6-11.5
		c2.3,0.5,4.6,1,7,1.6c-2.8-7-7.6-13.1-7.1-18.8c0.6-6.7-1-9.3-6.1-12.4c-18.3-11.3-23.9-25.2-19.5-46.4c1.2-5.8,2.2-11.6,3.3-17.8
		c-1.3,0.8-2.2,1.3-3,1.8c3.9-9,10.4-14.1,19.4-14.2c-1.2,7.1-1.2,14-3.6,20c-6,15.4-1.2,29,8.2,40.2c12.2,14.5,26.5,27.1,40,40.5
		c0.6,0.6,1.7,0.9,2.7,1c6.7,0.8,13.4,1.5,20.2,2.3c0.7-0.1,1.5-0.2,2.2-0.4c0.7,5.2,1.5,10.4,2.5,17.7c-3.9,3.4-1.9,9.2,1.3,15.1
		c-1.1,3.1-3.8,6.8-2.9,9.1c3.9,9.7,8.6,19.1,13.5,28.3c3.6,6.7,9,12.5,11.8,19.5c3.2,8.1-1.4,12.7-9.3,9.5
		c-7-2.9-13.2-7.8-19.7-11.9c0.6-0.9,1.2-1.8,1.7-2.7c2.3,1.6,4.6,3.2,6.9,4.8c1.3-1.5,2.6-2.9,4-4.4c-5-3.3-9.9-6.7-14.9-9.9
		c-3.7-2.3-8.4-3.5-11.1-6.6c-11.1-12.8-15.9-28.1-16.3-45.1c-0.1-4.8-1.6-9.6-2.4-14.4c-0.5,0.2-1.1,0.3-1.6,0.5
		c-0.5,10.6-1.1,21.2-1.6,31.9c-1.5-0.1-3.8-0.4-7.3-0.7c4.5,5.8,8.2,10.6,13.1,16.9c-7.7-4.2-13.6-7.4-19.1-10.4
		c-2.8,8,1.2,12.9,7.2,17.2c2.4,1.7,4.6,4,6.1,6.4c1.4,2.3,1.7,5.2,2.5,7.9c-2.5,0.3-5.1,0.5-7,0.7c0,1.7,0.4,4.6-0.1,4.8
		c-10.9,3.4-11-9.3-16.6-11.6c-1.8,5.4-3.5,10.8-5.3,16.2l-0.1,0.3c-1.7,0.7-3.4,1.4-3.9,1.6c0.5,10.3,0.9,20.5,1.4,31.1
		c-6.1-4.1-11.8-8-17.5-11.8c-0.4,0.4-0.8,0.7-1.2,1.1c6.2,8.7,12.4,17.3,19.8,27.7c-7.3-2.5-12.9-4.5-18.5-6.4
		c-0.3,0.5-0.5,1-0.8,1.5c2.2,1.9,4.3,3.9,6.5,5.8c-4,0.3-6.7-1.3-9.6-2.4c-2.5-0.9-5.3-1.2-8-1.8c-0.5,1.2-1,2.5-1.4,3.7
		c11.1,9,22.2,18,33.2,26.9c0.5-0.7,1-1.5,1.4-2.2c0,4.2,0,8.4,0,12c-4.9-3.5-10-7.7-15.6-11c-10.8-6.4-22.4-11.6-32.6-18.8
		c-7.6-5.4-14.4-12.5-19.8-20.1c-4.8-6.7-6.9-15.3-10.6-22.8c-1.2-2.4-5.4-3.7-6-6c-1.7-6.9-1.9-14.1-3.4-21
		c-0.9-4.2-3.2-8.1-4.9-12.2c-1.1,0.2-2.2,0.4-3.3,0.5c-0.3,5-1.8,10.4-0.5,15c3.5,12.5,7.1,25.1,12.8,36.7
		c5.8,11.6,13.3,22.6,21.6,32.6c6.5,7.8,15.4,13.6,23.3,20.3c-0.9,1-1.9,2-2.8,3c-17.3-12.6-32.3-27.5-44.2-47.3
		c-0.6,3.8-0.8,5.8-1.3,7.8c-0.9,3.1-3.7,7-2.7,9.1c5.2,10.5,11.4,20.5,17.3,30.8c-1.9,1.1-3.5,2-4,2.2c2.2,7.7,4.2,14.8,6.2,21.8
		c0,0,0.2,0.2,0.2,0.2c-3.2-2.1-6.4-4.1-9.6-6.2c-0.8,0.3-1.6,0.6-2.4,1c2.9,10.9,5.8,21.9,8.8,32.9c-3.7-1.9-8.5-4.4-14.3-7.4
		c1.1,4.6,1.9,8.4,3.4,14.5c-5.1-3.4-9.7-4.9-11.7-8.1c-10.7-16.8-14.5-36-18.5-55.2c-2-9.6-3.7-19.3-6.5-28.8
		c-0.9-3.1-4.5-5.4-6.9-8c-0.5,0.5-1,0.9-1.5,1.4c1,1.5,2.1,3,3,4.4c-3.7-0.3-7.2-0.5-11.7-0.8c3.2,5.2,5.5,8.9,7.9,12.7
		c-0.4,0.5-0.9,1.1-1.3,1.6c-3.7-1.9-7.3-3.7-11-5.6c3.3,4.8,7.3,8.6,11.8,11.7c6.5,4.4,3.7,6.6-0.6,8c3.8,5.1,7.6,10.2,11.5,15.4
		c-0.7,0.8-1.5,1.6-2.2,2.4c-5.3-5.1-10.5-8.4-15.4-0.3c-2.6,2.6-5.6-7.7-8.1,0.2c-14-14.6-21.6-32.3-24.5-51.3
		c-1.2,7.1-2.5,14.7-3.9,22.3c-0.4,2-0.8,4.1-0.9,6.1c-0.1,1.8,0.7,4.1-0.1,5.3c-0.8,1.2-3.2,1.4-5.7,2.2c3.5,4.3,7.1,8.7,11.4,14
		c-3.6-2.2-6.1-3.7-8.7-5.2c-0.7,0.6-1.3,1.2-2,1.8c4.2,8.2,7,17.5,13,24.1c6,6.7,1.3,15.8,7.5,21.6c6.7,6.3,13.1,12.8,19.6,19.3
		c-0.5,0.5-1,0.9-1.5,1.4c-3.6-2.6-7.1-5.2-10.7-7.8c-0.7,0.9-1.5,1.7-2.2,2.6c10.5,9.4,21,18.8,31.6,28.2c-2.3-0.3-4.2-1.4-6.1-2.3
		c-1.8-0.8-3.8-1.5-4.8-1.8c19.5,43.9,58,67.1,98.7,87.4c41.1,20.4,84.2,28.8,130,19.6c-6.2,0-12.4,0-19.6,0c1.8-1.6,2.5-2.3,4-3.6
		c-7.5-0.4-13.7-0.6-21.4-1c2.7-1.5,3.8-2.2,3.9-2.3c-16.4-7-33.4-14.2-50.4-21.5c0.2-0.4,0.3-0.9,0.5-1.3c4.5,0.9,9,1.9,13.5,2.8
		c0.1-0.4,0.2-0.8,0.3-1.1c-7.6-2.8-15.3-5.7-23.4-8.7c1.7-1,2.7-1.6,6.1-3.6c-22-5.5-41.9-10.4-61.7-15.4c0.1-0.5,0.3-1,0.4-1.6
		c3.9,0.5,7.8,0.9,13.2,1.6c-7.6-5.8-13.8-10-19.5-15c-7-6.2-13.4-13.1-20.3-19.3c-12.2-10.9-25.2-21-36.9-32.4
		c-8.9-8.7-16-19.2-24.8-28.1c-5.9-5.9-10.9-11.6-10.2-20.5c7.2,5,14.4,9.9,21.5,14.9c-1.5-4.1-4.7-6.2-7.1-9.1
		c-3.5-4.1-6.4-8.6-9.5-13c1,0.5,2,1,3.1,1.5c11.2,11.1,22.4,22.2,33.8,33.2c1.7,1.7,4,3.8,6.1,4c8.8,0.6,16.2,6.2,14.1,13.4
		c-3.1,10.8,7.6,13.3,11.3,17.4c5.7,6.5,17.7,7.5,27.9,11.2c-2.3,0.9-3.7,1.5-5.5,2.1c1.3,0.9,2.4,1.6,3.7,2.5
		c-1.3,0.6-2.2,1.1-3.2,1.6c7,2.6,13.8,2.8,20.6,3.5c6.5,0.6,13,1.7,19.5,2.6c-0.1,0.9-0.2,1.8-0.3,2.7c-4.4,0.5-8.8,1-14.4,1.6
		c15.1,3.9,28.7,7.3,42.3,10.8c-0.2,1-0.5,2-0.7,3c-3.4-0.2-6.9-0.5-10.3-0.7c-0.3,0.6-0.5,1.3-0.8,1.9c4.6,2.6,9.3,5.2,13.5,7.5
		c-0.6,0.2-2.5,0.7-4.4,1.3c0.1,0.7,0.1,1.3,0.2,2c12.2,0,24.4,0,36.6,0c-8.5,5-19.6-5.8-26.4,6.4c2.8,0.9,5.6,2.2,8.4,2.6
		c12.6,1.9,20.1,15.6,34.5,13.7c8.4-1.1,17.3,0.3,25.9,1.1c4.8,0.4,9.5,1.9,14.2,3c-0.2,0.6-0.3,1.2-0.5,1.8c-7.8,0-15.5,0-23.3,0
		c0,0.9,0,1.7,0,2.6c12.2,0,24.3,0,36.5,0c0,0.6,0,1.2,0,1.8c-9.9,0-19.7,0-29.6,0c9,2.7,18,4.9,27.2,5.6c3,0.2,7.5-2.7,9.2-5.5
		c1.3-2.1,0-6.5-1.3-9.5c-2-4.9-4.8-9.4-7.3-14c0.5-0.3,1-0.5,1.6-0.8c4.4,4.2,8.8,8.3,13.3,12.5c0.4-0.4,0.7-0.9,1.1-1.3
		c-2.3-2.9-4.6-5.7-7-8.6c14.4,20,37.8,9.4,56.1,16.5c0.6-4.3,0.1-9.5,2.2-13.3c3.5-6.5,1.6-10.7-2.5-15.9
		c-5.5-7.1-9.7-15.2-14.5-22.8c0.6-0.4,1.2-0.8,1.9-1.1c2.8,3.8,5.7,7.6,8.5,11.4c-1.9-6.5-4.6-12.5-7.8-18.2
		c-2.4-4.3-6.1-8-7.9-12.5c-2.2-5.6,2.7-12-3.6-18c-5.5-5.3-4.8-12.6-3-15.3c12.3,23.1,25.1,47,38.6,72.3c3.4-3,5.7-4.2,6.8-6.2
		c1.1-2,0.9-4.7,1.6-9.5c5.2,16.6,16,23.8,30,27.9c-10.4-12.9-20.8-25.7-31.2-38.6c7.6,6.5,15.2,12.9,22.7,19.4
		c0.6-0.5,1.1-1,1.7-1.5c-3.8-5.2-7.6-10.4-11.4-15.6c0.2-0.2,0.5-0.4,0.7-0.6c4.3,3.7,8.6,7.5,12.9,11.2c0.5-0.4,1-0.9,1.4-1.3
		c-3.8-4.5-7.5-9.1-11.3-13.6c0.6-0.5,1.2-1,1.8-1.5c9.3,10.8,18.7,21.6,28,32.4c0.6-0.4,1.2-0.8,1.8-1.3
		c-5.2-7.7-10.5-15.3-16.4-24c4.6,2.5,7.7,4.3,10.8,6c0.5-0.7,1-1.5,1.5-2.2c-3.9-3.6-7.9-7.1-11.8-10.7c0.3-0.4,0.7-0.7,1-1.1
		c8.3,5.9,16.6,11.9,24.9,17.8c-3-5.3-7.3-8.9-11.1-13c-6-6.4-11.8-13.2-17.6-19.8c4.1,2.7,8.1,5.6,12.3,8.1c5.2,3,10.7,5.6,16,8.4
		c1,0.5,2.1,0.9,3.1,1.4c-0.4-1.7-0.2-3.9-1.2-5.1C507,628.7,501.7,622.8,496.6,616.9z M328.6,389.6c-1.7,9.1-1.7,9.1,22.6,45.4
		C343.6,419.6,336,404.3,328.6,389.6z M419.4,415.7c-2.6,12.9,15.8,24.2-1.3,36.7c15.3-2.9,18.7-9.7,11.9-19.6
		C426.5,427.6,423.5,422.2,419.4,415.7z M197.4,326.2c-6.2,15.5-12.5,31.1-19.2,47.7C193.3,360.2,197.9,343.9,197.4,326.2z
		 M422.8,488c-0.6,0.5-1.3,1-1.9,1.5c4.6,4.2,10.5,7.6,13.6,12.8c3.1,5.2,3.5,12,5.6,19.9c1.8-2.9,5.6-6.4,5-8.6
		c-1.4-5.4-4.2-11-7.9-15.1C433.3,494,427.7,491.4,422.8,488z M444,494.9c-3.2-8-6.3-16.8-10.1-25.2c-0.8-1.7-4-2.3-5.8-3.3
		C429.7,479.2,430.4,491.8,444,494.9z M411.1,422.3c3.3-19.4-0.1-29.1-8.6-30.4C405.2,401.4,408.1,411.7,411.1,422.3z M127.7,468
		c1.9-6.3,3.7-11.9,5.4-17.5c0.9,0.2,1.8,0.3,2.7,0.5c-1.5-1.8-3.1-3.6-4.7-5.6C124.5,452.5,118.8,459,127.7,468z"/>
	<path d="M431.8,335.9c1.9-0.4,3.9-0.8,5.8-1.2c0,0,0-0.1,0-0.1c0.8-0.7,1.6-1.5,2.4-2.2c0.1-0.5,0.4-0.9,0.8-1.3
		c0.1,1.6,0.8,3.6,0.2,4.8c-2.9,5.1-6.1,10-9.9,16.1c5.7,0.3,8.7,0.4,11.5,0.6c-1.1,8.4-2.1,16.1-2.7,20.9c-4,0.8-6.9,1.9-9.7,1.9
		c-3.7,0-7.8,0-10.9-1.6c-4.8-2.5-9-6.4-13.4-9.8c-1.2-4.4-2.5-8.7-3.7-13.1c2.2,2.6,4.4,5.1,6.7,7.7c3.2,3.5,6.4,6.9,9.6,10.3
		c-4.8-23.4-22.2-41.6-36.9-39.4c-6-3.5-9.7-5.6-13.4-7.7c-5.4-4.5-10.7-9-16.1-13.5c-0.5-0.9-1.1-1.8-1.6-2.7
		c-1.1-3.1-3.4-6.3-3.2-9.3c0.9-12,2.7-24,3.9-36c0.4-4.4,0.6-9-0.1-13.4c-0.5-3.5-2.5-6.8-3.9-10.1c0-22,0-44,0-63.2
		c-1.6,9.6-3.7,21.6-5.8,33.7c-0.8,1.9-1.5,3.8-2.3,5.7c-1.2,0.8-2.5,1.7-2.7,1.8c-1-3.2-1.9-6-2.7-8.8c3.3-9.7,11.5-19.1,3.1-29.9
		c-2.2,7.5-3,15.4-6.8,21.5c-6.4,10.5-6.5,20.5-2.4,31.3c-7.2-8.5-9.1-17.9-4.5-28.3c2.3-5.1,4.9-10.1,6.6-15.4c1.4-4.3,0.8-7.8-5-4
		c9.1-6.4,17.8-13.6,27.5-19c20.1-11.2,40.8-21.6,61.3-32.1c1.9-1,4.5-0.9,6.7-1.3c2.4,9.9,4.7,19.8,7.1,29.7
		c-0.8,0.2-1.5,0.4-2.3,0.7c-0.7-1.8-1.3-3.7-1.9-5.4c-0.7,3.1-1.4,6.6-1.9,9.2c-1.2-9.6-2.5-19.6-3.8-29.7
		c-1.2,0.1-2.3,0.2-3.5,0.3c-0.9,11.3-1.8,22.5-2.5,31.1c-0.9-7.7-2-18-3.2-28.3c-1,0.1-2,0.2-3,0.3c0,8.9,0,17.8,0,27.1
		c-0.8-8.2-1.6-16.1-2.6-25.6c-5.3,3.7-9.1,6.4-12.7,8.9c0.5,12.3,1.1,25.7,1.7,38.3c3-1,7.3-2.3,11.5-3.6c0.4,0.8,0.8,1.6,1.2,2.4
		c-10.3,10.9-19.5,22.2-14.4,40.7c3-4.3,4.7-6.9,6.2-9c3.9,1,7.7,1.9,11.1,2.8c0.7,2.7,1.6,5.7,2.7,9.8c-1,1.1-3.4,3.6-5.7,6.1
		c0.4,0.6,0.8,1.1,1.2,1.7c3.4-2,6.8-4,10.2-6c0.5,0.5,1,1.1,1.6,1.6c-7.6,7.2-15,14.6-22.8,21.5c-5.3,4.7-8.7,7.6,0.1,13.1
		c3.5,2.2,11.4,5.1,8.7,13c12.8,4.6,6.2,15.5,7.7,23.8c1.2,6.3,12.8,9.4,19.4,4.9c1.7-1.1,3.4-2.3,6.5-2.4c-2.5,5.7-5,11.4-7.5,17
		c-0.5,0.8-0.9,1.7-1.3,2.5l0.2-0.4c0,0.8,0,1.6,0,2.4l-0.2-0.4c0,1.1,0,2.3,0,3.4c0,0.7-0.1,1.5-0.1,2.2c0.7,1.5,1.3,3,2,4.5
		C430.5,336.4,431.2,336.2,431.8,335.9z M356,164.4c-1.1,13.6-1.8,25.7-3,37.8c-0.8,7.9-3.1,15.7-3.1,23.6c0,4.8,3,9.7,4.6,14.5
		c0.8-0.3,1.6-0.6,2.4-0.9C355.7,214.9,365.4,190,356,164.4z M367.5,244.2c0.1-0.6,0.3-1.3,0.3-1.9c-1-12.7-4.9-26.1,8.1-35.8
		c0.5-0.4,0.2-1.9,0.4-2.8c0.6-4,1.1-8,2-12c0.9-4.1,2.3-8.1,3.5-12.2c-0.8-0.3-1.6-0.5-2.4-0.8c-2.7,6.7-5.4,13.4-8.4,21
		c-1.9-2.4-3-3.8-3.9-4.9C358.9,211.5,362,228.1,367.5,244.2z"/>
	<path d="M321.9,354.4c-1.6,1.4-3.3,2.8-4.9,4.3c-0.7,0.1-1.5,0.2-2.2,0.4c-0.2-0.6-0.8-1.4-0.6-1.9c7.1-13.6-1.4-22.6-8.8-32.4
		c-5.1-6.8-8.6-14.7-12.6-21.7c-1.8,5.8-3.7,12.6,3.1,19c1.8,1.7,1.7,5.4,3,9.7c-9.5-3.8-16.8-6.3-23.6-9.8c-1.9-1-3.3-5-3-7.5
		c0.6-5.2,2.3-10.3,3.8-15.4c0.3-1.2,1.7-3.1,2.2-3c11.3,2.4,13.2-10.3,21.1-13.7c2.6-1.1,1.7-10.2,2.4-15.6
		c-0.4,7.9,0.7,16.4-1.7,23.7c-3.1,9.6-1.9,17.4,4.7,25.4c-7-13.3-5.4-23.8,7.7-29.3c4.8,11.9,9.8,24.5,15.1,37.6
		c-2.3,0.2-5,0.5-7.3,0.8c0.4,9,0.9,18.6,1.4,28.1C321.9,353.2,322,353.8,321.9,354.4z"/>
	<path d="M291.7,90.5c-0.7-5.8,3.1-6.7,7.6-7.7c14.7-3.3,24.8,6,36,12.4c3,1.7,5.8,3.8,10.2,4.3c-1-2.2-1.9-4.4-2.9-6.5
		c-1.3-2.9-2.7-5.7-4-8.6c3.4-0.4,6.7-0.8,10.1-1.1c1.3-0.1,2.6,0.5,3.9,0.8c0,0,0.5,0.2,0.5,0.2c-1.3,1.2-2.6,2.4-4.1,3.8
		c3,2,5.7,3.7,9.5,6.2c-2.1,1.3-3.7,2.3-5.9,3.7c5.1,1.1,9.2,2,16.2,3.5c-7.5,1.9-12,3-17.3,4.3c1.7,3.7,3.6,7.6,5.2,11.7
		c0.2,0.5-1.6,1.8-2.5,2.8c-5.2-6-9.8-13.1-19.4-11.9l-0.2,0c-0.8-0.5-1.7-1-2.5-1.6c0.2-3.8,0.4-7.5,0.6-10.4
		c-4-2.6-7.3-4.5-10.3-6.6C311.8,82.4,297.7,82.7,291.7,90.5z"/>
	<path d="M455.2,124.8c-3.1,0.7-6.2,1.5-10.7,2.6c2.3,6,4.7,12.2,7.1,18.4c-0.6,0.3-1.2,0.6-1.7,0.9c-3-6.1-6-12.2-9-18.3
		c-0.6,0.2-1.2,0.3-1.8,0.5c0.3,5,0.6,9.9,1,16.9c-2.3-6.5-4-11.2-5.7-15.8c-0.3,0.9-0.7,1.8-1,2.7c-2.6-0.2-5.2-0.1-7.7-0.8
		c-2.1-0.6-3.9-2-5.9-3c11.9-1.2,23.8-2.5,35.7-3.7C455.5,125.2,455.2,124.8,455.2,124.8z"/>
	<path d="M401.5,479.3c-7.1,9.1-8.6,9.4-13,2.4c2.5-4.8,4.9-9.7,7.6-15.1C402.7,469,402.1,474.2,401.5,479.3z"/>
	<path fill="#FFFFFF" d="M131,445.4"/>
	<path d="M252.3,447.5c0.6,0.3,1.2,0.6,1.7,1.1c0,0,0.2-0.3,0.2-0.3c-0.7-0.2-1.3-0.3-2-0.5C252.2,447.9,252.3,447.5,252.3,447.5z"
		/>
	<path d="M303.4,114.8c-1.1-2.7-2.3-5.3-3.4-8c3,2.1,6.2,3.8,8.9,6.2c10.5,9.3,20.7,18.9,31.2,28.2c6.8,6,15.7,4.9,24.3-4.1
		c-4.1,0-6.4,0-8.6,0c3.2-2,6.3-3.9,8.7-5.4c-2-2.3-4.5-5.1-7-7.9c9.2,3.8,18.5,7.6,29.1,12c-38.1,17.8-74.4,40-106.1,69.3
		c-0.6-0.6-1.3-1.3-1.9-1.9c0.2-1.8,0.2-3.7,0.8-5.4c5.8-16.5-4.5-26.3-14.7-36.4c-2.2-2.2-2.6-6.2-3.5-8.5
		c-3.8,14-2.8,13.7,2.5,28.8c3,8.7,2.1,18.8,3,28.7c1.4-0.5,3.8-1.5,6.2-2.4c0.4,0.4,0.7,0.7,1.1,1.1c-6.2,6.9-13.9,12.9-18.1,20.9
		c-5.2,9.9-13,11.7-22.3,12.3c0.9-10.2,1.8-20.4,2.7-30.6c-0.2,0.2-0.5,0.4-0.7,0.6c-4.4,15.4-8.8,30.8-13.2,46.1
		c0.7,0.3,1.5,0.6,2.2,1c1.6-1.5,3.2-3.1,4.8-4.6c-6.6,9.2-13.1,18.3-19.7,27.5c0.1-14.2-1-28.5,6.4-41.6c0.6-1,0.2-2.6,0.2-3.9
		l-0.3,0.4c2.1-5.4,5.4-10.6,6-16.2c0.7-6.8-0.8-13.8-1.5-22.5c7.4,6.4,14.2,10.5,21.2-1.4c1.6,10.6,2.9,19,4.3,27.4
		c0.5-0.1,1.1-0.2,1.6-0.2c-0.6-6.1-1.1-12.2-1.7-18.4c3.6,3.1,7,6,10.6,9.2c8.9-16.1,7.4-28.8-3.6-36.6c1.1,7.8,2.1,15.5,3.1,23.2
		c-1.3,0.2-2.5,0.3-3.8,0.5c-1.6-8.9-3.2-17.7-4.7-26.6c1.1-0.3,2.2-0.6,3.3-1c-3.7-4.4-7.5-8.9-12.4-14.8c-0.1,0.9,0-0.8,0.4-2.4
		c0.4-1.6,1-3.1,0.3-5.3c-1.4,1.9-2.9,3.9-4.3,5.8c-0.3-0.1-0.6-0.2-0.8-0.3c2.6-6.9,5.2-13.7,8.5-22.2c2.2,3.3,3.5,5.3,4.8,7.3
		c0.7-0.5,1.4-0.9,2.1-1.4c-2.9-4.6-5.8-9.2-9.2-14.5c1.6-1.2,3.9-3,7.7-6c-6.3-0.6-11.1-1-15.9-1.4c0.1-0.9,0.3-1.8,0.4-2.8
		c9.4,1.4,18.8,2.9,28.2,4.3c3.5,1.9,6.9,3.8,10.4,5.8c4.4,8.6,28.1,15.7,35.2,9.9c3.9-3.1,5.4-7.6,0.3-12.3
		c-2.8-2.6-4.3-6.6-6.3-10C301.2,114.5,302.3,114.7,303.4,114.8z M303,158.2c2.5,2.7,3.8,4.1,5.9,6.4c0-4.2,0-7,0-9.9
		c0.5,0,1.1,0,1.6,0c0.6,5.9,1.2,11.7,1.8,17.6c0.5,0,1.1,0,1.6-0.1c0.3-4.5,0.6-8.9,1-14.6c0.7,3.2,1.2,5.3,2,8.5
		c0.9-3.4,1.5-5.7,2.1-8.1c1.1,1.1,1.6,1.7,2.1,2.3c0.7-0.4,1.4-0.8,2.1-1.3c-2.9-7.4-5.9-14.9-7.4-18.7
		c-19.1-2.9-34.2,13.3-51.7-0.6c5.1,5.8,9.9,11,15.9,14.2c4.6,2.4,9.6,2.7,6.3,9.8c-0.5,1,0.5,3.4,1.5,4.2
		c4.2,3.4,8.6,6.5,13.4,10.1C301.6,172.8,302.2,166.2,303,158.2z M218.4,259.1c2-6.8,3.8-12.7,5.4-18.7c1.7-5.9,3.3-11.8,4.9-17.7
		C221.2,233.7,213.9,244.7,218.4,259.1z M322.6,138.9c-1.1,9.3,6.4,11.5,13.3,12.9c3.7,0.7,8-1.4,13.3-2.5
		C338.9,145.2,330.8,142.1,322.6,138.9z"/>
	<path d="M189.4,310.6c1.1-0.5,2.2-1,3.3-1.5c0.1,2.1,1.1,5.2,0.1,6.3c-6.7,6.9-13.8,13.3-21.2,20.2c-18.8-17.9-32.8-38.5-30.8-66.6
		c1.2,7.4,2.5,14.8,4.1,24.3c2.4-3.3,3.4-4.7,4.4-6.1c2.2,7.3,4.4,14.5,5.9,19.5c1.9-7.9,4.8-16.8,6.2-26c1.2-7.7,2.4-16.1,0.5-23.3
		c-4.5-17.1-7-33.8-2.1-51.2c1.6-5.8,1.1-12.1,0.6-18.2c-7,23.8-10.9,47.3-1.4,71.5c4.5,11.4,2.3,17.7-5.7,27.9
		c8.4-17.5-2.5-33-3.6-49.2c-1.5-21.2-4.4-43.9,9.2-63.6c2.5-3.7,2.8-8.9,5-12.9c2.3-4.1,5.7-7.6,10.1-13.2
		c-6,26.9,8.1,52.5-6.4,72.3c0-15.7,0-34.8,0-54c-1.1,0-2.3-0.1-3.4-0.1c0,6.2,0,12.4,0,18.6c0,7.2,0.2,14.4-0.1,21.6
		c-0.1,4-2.5,8.4-1.4,11.8c7.8,24.2,2.5,48.9,3.4,73.4c0.1,1.5,0.5,2.9,1.9,4.4c0.2-4.8,0.4-9.7,0.7-15.6
		c3.9,9.2,6.9,17.6,11.2,25.2c1.4,2.5,6.4,2.9,9.8,4.2C189.7,310.3,189.4,310.6,189.4,310.6z"/>
	<path d="M189.4,310.6c0,0,0.4-0.3,0.4-0.3c-10.9-4.5-11-14.3-11.9-23.8c-0.3-3.4-0.6-6.8-1.1-10.2c-2.3-15.1-4.7-30.1-6.8-43.1
		c1.7,4.6,4.1,11.3,6.6,18c0.5-0.2,1-0.3,1.6-0.5c-0.7-2.8-1.1-5.6-2-8.3c-4.2-13.3-3.9-25.7,4.6-37.9c3.2-4.6,3.2-11.7,3.6-17.8
		c0.9-13.4,1.2-26.9,1.7-40.3l-0.2,0.2c4.2-1.7,8.4-3.4,13.6-5.4c-1,8.9-2,18.5-3.1,28.2c1.1,0.1,2.2,0.2,3.3,0.2
		c-0.5-3.7-1.1-7.4-1.9-12.7c13.7,23.2,10.2,43.8-5.3,47.2c0.8-16.1,1.6-32.7,2.5-50.5c-10.1,8.5-10.8,12.6-6.3,33.5
		c1-2.9,1.7-4.6,2.3-6.3c0.8,0.3,1.6,0.6,2.3,0.9c-2.5,6.6-4.3,13.5-7.8,19.6c-6.3,11-5.8,36.2,1.8,46.1c6.3,8.3,7,8.8,5.1,16.6
		c-3,12.4-4.5,24.5-0.8,37C192.4,303.8,190.2,307.4,189.4,310.6z"/>
	<path d="M266.6,315.4c-7.4-6.2-8.6-14.3-5.3-20.9c3-5.9,10.1-9.6,17.8-16.5c1-5.1-16.6-12.9-1.6-22.3c-3.3-1.8-6-3.2-8.8-4.7
		c-16.8,32-18.5,39-10.8,62.5c-1.3-2.1-3.1-4.1-3.8-6.4c-5.5-16.7-6.1-33.3,3.4-48.9c3.8-6.2,9.4-12,17-9c5.4,2.2,9.5,8,13.9,12.4
		c1.2,1.2,1.5,3.4,2.4,5.4c1-1.6,1.7-2.7,2.5-4c3.8,11.3-1.9,17.6-10.5,22.7C271.9,292.1,265.1,301,266.6,315.4z"/>
	<path d="M207.6,207.6c2.5-1.5,4.9-3,8.3-5c0,11.9,0,23.1,0,34.3c0,0,0.3-0.4,0.3-0.4c-1.3,0.5-2.7,1.6-3.8,1.4
		c-7-1.2-2.1-7.9-5.3-12.7c-1.1,6.5-2,11.5-2.9,16.6c-0.5-0.1-0.9-0.2-1.4-0.3c0.4-4.4,0.8-8.7,1.3-13.1c-0.8-0.1-1.7-0.3-2.5-0.4
		c-0.7,3-2.1,6.1-2,9.1c0.2,12.9,0.4,25.9,1.7,38.7c0.3,3.2,4.3,6.1,6.7,9.2c-2.2,3.9-4.5,7.8-7,12.3c-7.8-9.8-8.4-19.1-5.7-29.9
		c1.8-7.3,1.7-15.6,0.1-23c-3.2-14.7-2.3-27.4,11.3-36.6c0,0,0.5,0,0.5,0L207.6,207.6z"/>
	<path d="M326,230.7c0.9,1.3,2.2,2.6,2.5,4c0.4,1.9-0.1,4-0.2,5.9c-2-0.4-4.1-0.4-5.9-1.2c-5.6-2.4-11-5.2-16.5-7.8
		c-3.6-5.4-7.2-10.8-10.8-16.1c-1.8-6-3.7-12.1,3.8-16.4c2.2,7.4,4.3,14.3,6.4,21.3c1.2-13.8-9.3-30.3,13.4-36
		c-2.5,8.3-5,16.6-7.5,24.9c0.8,0.2,1.5,0.4,2.3,0.7c1.7-4.9,3.3-9.9,5-14.8C317.9,207.9,312.7,221.1,326,230.7z"/>
	<path d="M270.9,126.8c-3.5-1.9-6.9-3.8-10.4-5.8c-7.1-2.9-14.2-5.8-20.9-8.5c5.7,0.4,12.2,0.8,18.8,1.3c0-0.8,0-1.7,0-2.5
		c-11.6-0.5-23.2-1-36.1-1.6c10-2.7,19.6-5.2,29.3-7.7c0.2,0.7,0.4,1.4,0.6,2.1c-1.5,0.5-3,0.9-4.5,1.4c0.1,0.7,0.3,1.3,0.4,2
		c6.5-1.4,14.1-1.1,19.3-4.5c9.9-6.3,15.8-4.1,20.6,5.4c0,0,0.3-0.3,0.3-0.3c-10.6,5.3,2.1,13.8-0.3,17.7
		C280.4,131.8,277.1,112,270.9,126.8z"/>
	<path d="M140.5,254.4c-0.2,1.3-0.4,2.6-0.6,3.9c-0.6-0.2-1.4-0.3-1.5-0.6c-7.1-21.8-11.4-43.2,8.4-62.5c0,4.8,0.6,8.8-0.1,12.4
		c-3.7,18.4-2.6,36,5.3,53.5c2.2,4.9-0.5,12.1-0.9,18.2c-1.2,0-2.4,0-3.5,0c-1.7-8.5-3.3-16.9-5-25.4
		C141.8,254.1,141.1,254.2,140.5,254.4z"/>
	<path d="M208.1,170c-7-19,0-31.4,12-41.6c2.5-2.1,8.5-3.9,10.1-2.5c4.1,3.6,2.6,7.9-1.8,11.5c-9.4,7.7-12.7,17.2-6.9,29.1
		c-1.5-2.3-3.1-4.7-4.6-7c-0.8,0.4-1.5,0.9-2.3,1.3c3.3,5.8,6.6,11.7,10.1,17.3c1.2,1.9,3.8,3.1,4.7,5.1c1.9,4.2,3.2,8.7,4.2,13.3
		c0.1,0.5-4.2,2.7-4.3,2.6c-2.6-3.8-5.7-7.6-7.3-11.9c-3.6-10.1-6.5-20.4-9.3-29.4C211.8,160.1,210.3,164.2,208.1,170z"/>
	<path d="M311.1,244.6c0.8,2.8,1.6,5.6,3.1,10.6c-2.6-3.2-4-4.9-5.7-7.1c-5.7,5.2-7.7,11.5-6.3,18.9c-4.6-16-13.1-28.3-31.2-30.1
		c-3.9-0.4-8,1-10.9,1.4c6.7-6.4,14.1-13.6,21.3-20.5c-0.4,13.5,11.7,17.7,23.4,22.5C306.8,241.7,308.9,243.1,311.1,244.6z"/>
	<path d="M311.1,244.6c-2.1-1.4-4.2-2.9-6.3-4.3c-4-4.8-3.9-12.7-13.7-12.9c-5.5-0.1-6.9-14.8-2-22.5c2.2,3.8,4.1,7.3,6.1,10.8
		c3.6,5.4,7.2,10.8,10.8,16.1C307.6,236,309.3,240.3,311.1,244.6z"/>
	<path d="M186.1,146.4c-6.9,7.1-7.5,15.7-7,25c0.6,10.6,0.1,21.3-0.9,31.8c-0.9-12.8-2.1-25.5-2.5-38.3c-0.2-8,0.8-16,9.2-20.5
		c0.2-0.1,0.8,0.1,0.8,0.3c0.2,0.6,0.2,1.2,0.3,1.8C185.9,146.6,186.1,146.4,186.1,146.4z"/>
	<path d="M207.6,207.6l-0.5,0.2c0,0-0.5,0-0.5,0c1.3-11.5,2.5-23,3.8-34.6C217.3,185.9,214.9,197.1,207.6,207.6z"/>
	<path d="M199.4,134.5c6.2-5.1,9.8-14.8,22.5-12.9C213.8,127.8,210.3,137.3,199.4,134.5z"/>
	<path fill="#FFFFFF" d="M300.1,114.4c0,0,0.1,0.3,0.1,0.3c1.1,0,2.1,0.1,3.2,0.1C302.3,114.7,301.2,114.5,300.1,114.4z"/>
	<path fill="#FFFFFF" d="M299.1,114c0,0-0.4-0.3-0.4-0.3C298.7,113.7,299.1,114,299.1,114z"/>
	<path fill="#FFFFFF" d="M295.2,111.9c0,0-0.4-0.2-0.4-0.2S295.2,111.9,295.2,111.9z"/>
	<path fill="#FFFFFF" d="M291.2,109.9c0,0-0.5-0.2-0.5-0.2C290.8,109.7,291.2,109.9,291.2,109.9z"/>
	<path fill="#FFFFFF" d="M288.4,108.3c0,0,0-0.3,0-0.3c0,0-0.3,0.2-0.3,0.3S288.4,108.3,288.4,108.3z"/>
	<path d="M275.3,564c0-3.8,0-7.6,0-12.1c-0.2,0.1,0.9-0.9,1.5-0.7c14.5,6,29.1,11.9,43.4,18.4c6.1,2.8,9.3,24,5,29
		c-5.2,5.9-16.9,5-22-3.8c-5.3-9.1-13.4-14.9-20.3-22.1c4.5,2.1,9,4.1,13.5,6.2c0.6-1.4,1.3-2.9,1.9-4.3
		C290.6,571.1,282.9,567.5,275.3,564z"/>
	<path d="M348.9,665c-11.3-14.1-34.1-11.5-39.6-32.6c4.2-0.5,6.8-0.8,10.6-1.2c-1.4-3.6-2.5-6.3-3.6-9.1c0.4-0.7,0.8-1.4,1.2-2.1
		c3.4,1.7,9.3,2.9,9.8,5.3c2,8.6,10.6,8.8,15,14.1C348.2,646.5,354.3,653.5,348.9,665z"/>
	<path d="M373.2,534c0,6.9,0,13.9,0,20.8c0.8,0.1,1.6,0.1,2.4,0.2c0.4-3.5,0.8-7,1.2-10.5c0.4,0,0.9-0.1,1.3-0.1
		c0.7,3.8,1.4,7.6,2.3,13c1.1-2.8,1.6-4.1,1.8-4.7c2.7,7.4,5.5,15.5,8.2,23C372.7,572.2,360.7,548.7,373.2,534z"/>
	<path d="M419.3,592c5.3,12.2,10.6,24.5,15.8,36.7c-0.8,0.4-1.7,0.7-2.5,1.1c-5.7-11.9-11.4-23.8-17-35.8
		C416.9,593.4,418.1,592.7,419.3,592z"/>
	<path d="M260,455.2c0.3,0.1,0.6,0.2,0.9,0.2c-0.2-0.2-0.4-0.3-0.6-0.5C260.3,455,260,455.2,260,455.2z"/>
	<path d="M183,555.2l0.7-0.1c0,0-0.5,0.3-0.6,0.3C183.2,555.4,183,555.2,183,555.2z"/>
	<path d="M256.2,450.4c-0.7-0.7-1.3-1.4-2-2c0,0-0.2,0.3-0.2,0.3c0.7,0.7,1.4,1.3,2,2C256,450.6,256.2,450.4,256.2,450.4z"/>
	<path d="M258,452.3c-0.6-0.6-1.2-1.3-1.8-1.9c0,0-0.2,0.2-0.2,0.2c0.6,0.6,1.2,1.3,1.8,1.9L258,452.3z"/>
	<path d="M257.8,452.6c0.8,0.9,1.5,1.8,2.3,2.7c0,0,0.2-0.2,0.2-0.2c-0.8-0.9-1.5-1.8-2.3-2.7C258,452.3,257.8,452.6,257.8,452.6z"
		/>
	<path d="M466.3,257.4c-2.7-14.5-3.8-15.4-17.3-13.1c-4.7-7.6-8.8-7.8-25.8-2c1.1-1.9,1.8-4.3,3.4-5.6c5.2-4.2,10.8-7.9,18.3-13.3
		c-5.6-1.9-7.7-2.6-9.7-3.2c0-0.8-0.1-1.7-0.1-2.5c8.2-0.6,16.5-1.9,24.7-1.6c11.1,0.3,15.8,4.1,15.8,17.2
		C475.5,241.4,469.6,249.4,466.3,257.4z"/>
	<path d="M463.6,428c-7.9-6-15.9-12-23.5-17.6c0.8,6.7,1.6,13.7,2.4,20.7c-0.7,0.2-1.5,0.4-2.2,0.6c-3.7-7.5-9.4-14.7-10.5-22.6
		c-1.1-7.8,2.4-16.3,4-25.3c5.3,8,9.6,16.3,15.6,23C455.6,413.5,463.7,418.7,463.6,428z"/>
	<path d="M447.7,356c-4.4,19.6-1.4,36.6,16.4,50.1c-0.5-3.5-0.9-6.1-1.3-8.7c0.5-0.1,1.1-0.1,1.6-0.2c0.5,8.1,1,16.2,1.5,23.4
		C440.9,393.7,434.9,373.7,447.7,356z"/>
	<path d="M485.2,446.6c0.8,2.1,1.5,4.2,2.9,7.8c-3.5-2.6-5.5-4.1-5.7-4.2c-4.8,2.3-8.4,4-11.9,5.7c-1.3-4.3-3.4-8.6-3.7-13
		c-0.3-3.8,1.3-7.7,2.2-12.2c2.1,0.6,4.5,1.2,6.9,1.9C479,437.3,482.1,441.9,485.2,446.6z"/>
	<path d="M485.2,446.6c-3.1-4.7-6.2-9.3-9.3-14c-1.6-7.1-3.1-14.3-4.6-21.1c1.7,0.3,4.2,0.7,4.3,0.8c6.8,12.6,13,24.1,19,35.2
		c-2.5-1.8-6-4.3-10.2-7.4C484.8,443.1,485,444.8,485.2,446.6z"/>
	<path d="M400.6,256.4c6.4-4.9,12.5-9.6,18.7-14.3c0.7,0.7,1.4,1.5,2.1,2.2c-2.8,3.4-5.6,6.8-9.3,11.4c13.6,3.5,21.4-5.9,32.5-11.8
		C430.9,259.6,411.9,267.1,400.6,256.4z"/>
	<path d="M465.2,261.3c9.4,0,21.2,11.9,20,18.3c-0.3,1.4-1.5,3.1-2.7,3.6c-1.1,0.5-3.5,0.1-4.1-0.8C474,275.8,469.9,269,465.2,261.3
		z"/>
	<path d="M428.8,266.4c1.3,3.4,2.3,6.2,3.3,9c-2.3-0.4-6.4-0.3-6.6-1.2c-0.8-3.6-1.9-9-0.1-10.8c3.2-3.2,8.6-4.3,13.8-5.2
		C435.4,261.2,431.6,264.2,428.8,266.4z"/>
	<path d="M490.3,291.2c0.9,6,1.8,11.9,2.9,19C481.3,298.8,481,295.7,490.3,291.2z"/>
	<path d="M465.3,456.4c1.3,4.2,2.9,8.5,3.8,13c0.2,0.7-3.4,3.3-4.1,2.9c-2.8-1.5-5.1-3.8-7.3-5.5
		C460.4,463.1,462.4,460.4,465.3,456.4z"/>
	<path d="M456.4,495c5.6-3.1,8.1-4.5,11.7-6.4c1.8,3.9,3.4,7.4,5,10.9c-0.7,0.8-1.4,1.7-2.1,2.5C466.9,500.1,462.9,498.1,456.4,495z
		"/>
	<path d="M427.9,332.2c0-0.7,0.1-1.5,0.1-2.2c0-1.1,0-2.3,0-3.4c0,0,0.2,0.4,0.2,0.4c0-0.8,0-1.6,0-2.4c0,0-0.2,0.4-0.2,0.4
		c0.4-0.9,0.7-1.7,1.1-2.6c1,2.8,2,5.5,2.9,8.3c0,0,0.2-0.1,0.2-0.1c-0.8,0.8-1.6,1.6-2.4,2.3l0.3-0.3
		C429.4,332.5,428.6,332.3,427.9,332.2z"/>
	<path d="M431.8,335.9c-0.6,0.3-1.3,0.5-1.9,0.8c0.1-1.4,0.2-2.7,0.3-4.1c0,0-0.3,0.3-0.3,0.3c0.8-0.8,1.6-1.6,2.4-2.3
		c0,0-0.2,0.1-0.2,0.1C431.9,332.4,431.8,334.2,431.8,335.9z"/>
	<path d="M440.7,331.1c-0.4,0.4-0.7,0.8-0.8,1.3c-0.1-1-0.2-2.1-0.4-3.1c0.5,0,1,0.1,1.5,0.1C441,329.9,440.8,330.5,440.7,331.1z"/>
	<path d="M437.6,334.6c0,0,0,0.1,0,0.1S437.6,334.6,437.6,334.6z"/>
	<path d="M332.8,230.9c2-6,4.1-12.1,6.1-18.1c0.8-1.9,1.5-3.8,2.3-5.7c0.6,8.6,1.3,17.2,1.9,25.7c-0.5,1.1-1,2.3-1.5,3.4
		C338.7,234.4,335.8,232.6,332.8,230.9z"/>
	<path d="M351.9,308.1c-10.8-2.3-16-12.5-11.5-21.2c3.2,5.9,6.5,12.2,9.9,18.5C350.8,306.3,351.3,307.2,351.9,308.1z"/>
	<path fill="#FFFFFF" d="M430.2,332.6c-0.1,1.4-0.2,2.7-0.3,4.1"/>
	<path fill="#FFFFFF" d="M428,329.9"/>
	<path d="M102.1,548.7c-4-4.5-7.9-9-11.9-13.5c0.5-0.5,1-1,1.4-1.5c1.8,0.9,3.6,1.8,5.4,2.6c0,0-0.1,0.6-0.1,0.6s-0.3-0.6-0.3-0.6
		c2.7,2.9,5.3,5.7,8,8.6c-0.3,0.1-0.6,0.4-0.8,0.4c-0.6-0.1-1.2-0.4-1.8-0.6c-0.8-0.6-1.6-1.2-2.4-1.8c-0.2-0.2-0.3-0.4-0.5-0.6
		c0.3,0.1,0.5,0.3,0.8,0.4c0.8,0.6,1.6,1.2,2.5,1.8c-0.2,1.5-0.4,2.9-0.5,4.4C101.9,548.8,102.1,548.7,102.1,548.7z"/>
	<path d="M107.2,550.7c-1.6,0.6-3.2,1.3-4.9,1.9c-0.1-1.3-0.1-2.6-0.2-3.9c0,0-0.2,0.1-0.2,0.1C103.7,549.5,105.4,550.1,107.2,550.7
		z"/>
	<path d="M367.9,323.6c4.5,5,9.5,9.6,13.2,15.2c1.4,2.1,0.8,7-0.8,9.4c-13,19.6-11.2,36.7,7.2,51.8c0.4,0.4,0.4,1.2,0.6,1.9
		c-9.8-5.6-17.9-5.5-21.1,0.5c-8.1-6.8-13-15.2-12.3-25.9c0.6-9.8,2.8-19,14.8-21.5c-0.3,2.2-0.7,4.9-1,7.6c0.5,0.1,0.9,0.2,1.4,0.3
		c2.1-5.2,4.4-10.3,6.1-15.6c0.4-1.3-1-3.3-1.6-4.9c-1.2,0.8-2.4,1.6-3.6,2.4C369.9,337.8,368.9,330.7,367.9,323.6z"/>
	<path d="M326.6,299.3c1.8-3.4,3.6-6.8,5.4-10.2c0.8,0.1,1.6,0.3,2.4,0.4c0,9.3-2.2,19.4,0.6,27.8c2.9,8.5,5.9,16.4,5,25.5
		c-0.9,9.9-3.9,18.7-14.7,26.4c1-4.6,0.7-8.4,2.1-9.1c12-6.3,10.5-17,8.7-27.7c-0.3,3.3-0.7,6.7-1,10c4.7-20-12.5-32.9-16.6-49.9
		c0.9-0.8,1.9-1.6,2.8-2.5c2.5,2.4,5,4.7,7.6,7.1C328.1,297.9,327.4,298.6,326.6,299.3z"/>
	<path d="M321.9,354.4c0-0.6,0-1.1-0.2-1.6c2.4-6.4,4.7-12.7,7.1-19.1c1.3,0.4,2.6,0.8,3.9,1.2c-1.6,5.9-3,12-5.1,17.8
		C327.2,353.7,323.9,353.8,321.9,354.4z"/>
	<path d="M318,284c1.4-6.6,3.5-13.2,4.1-19.9c0.5-6.4-0.5-13-0.9-19.5c0.9,0,1.9,0.1,2.8,0.1c-0.7,13.1-1.4,26.2-2.1,39.3
		C320.6,284,319.3,284,318,284z"/>
	<path d="M197.1,385.1c3.8,7.3,8.1,15.6,11.9,23C196,407.1,190.4,396,197.1,385.1z"/>
	<path d="M444.8,587.7c7.6,11,15.2,22.1,22.7,33.1C454.1,613.8,449,601.1,444.8,587.7z"/>
	<path fill="#FFFFFF" d="M334.7,108.4c0,0-0.2,0-0.2,0S334.7,108.4,334.7,108.4z"/>
	<path fill="#FFFFFF" d="M228.7,222.8c-1.6,5.9-3.2,11.8-4.9,17.7c-1.7,5.9-3.4,11.8-5.4,18.7"/>
	<path d="M329.8,112.6c1.4,0.2,2.7,0.3,4.1,0.5c-0.6,1.6-1.3,3.2-1.9,4.8C331.2,116.2,330.5,114.4,329.8,112.6z"/>
	<path d="M325.9,110.3c1.4,0.9,2.9,1.7,4.3,2.6C328.8,112.1,327.3,111.2,325.9,110.3z"/>
</g>
</svg>
