<?xml version="1.0" encoding="utf-8"?>
<!-- Generator: Adobe Illustrator 18.0.0, SVG Export Plug-In . SVG Version: 6.00 Build 0)  -->
<!DOCTYPE svg PUBLIC "-//W3C//DTD SVG 1.1//EN" "http://www.w3.org/Graphics/SVG/1.1/DTD/svg11.dtd">
<svg version="1.1" id="Layer_1" xmlns="http://www.w3.org/2000/svg" xmlns:xlink="http://www.w3.org/1999/xlink" x="0px" y="0px"
	 viewBox="0 0 800 800" enable-background="new 0 0 800 800" xml:space="preserve">
<g>
	<path fill="#FFFFFF" d="M275.1,522.4c-6.3,6.4-12,13.3-18.8,18.8c-12.7,10.3-27.6,15.1-44,15.1c-41.8,0-83.5,0-125.3,0
		C46.2,556.3,14,524,14,483.4c0-77.5,0-154.9,0-232.4c0-2.2,0-4.5,0-7.1c83.4,0,166.3,0,249.6,0c0,6.7,0,13.3,0,20.5
		c-34.5,0-68.7,0-103.5,0c0,73,0,145.5,0,218.3c-7.1,0-13.7,0-20.9,0c0-72.5,0-145,0-217.8c-35.1,0-69.4,0-104.5,0
		c0,1.8,0,3.7,0,5.5c0,70,0,139.9,0,209.9c0,28.8,17.2,49.8,44.6,54.5c2.4,0.4,4.8,0.5,7.3,0.5c41.9,0,83.9,0,125.8,0
		c26.5,0,49.2-21,51.3-47.4c0.3-3.6,1.4-4.8,5-4.6c5.2,0.3,10.4,0.1,14.8,0.1c2.3,7.9,3.5,15.6,6.8,22.3
		c9.5,19.4,25.5,29.5,47.1,29.6c41.9,0.2,83.9,0.5,125.8-0.1c28.9-0.4,50.9-23.6,51.1-52.6c0.1-10.6,0.2-21.2-0.1-31.8
		c-0.1-2.7-1.5-6.1-3.4-8c-37.9-38.2-75.9-76.2-113.9-114.3c-1.5-1.5-3.2-2.6-5.2-4.2c5.6-5.1,10.5-9.5,15.8-14.4
		c0.6,0.6,2,1.8,3.3,3.1c40.3,40.2,80.5,80.5,120.8,120.7c2.7,2.7,3.8,5.4,3.7,9.1c-0.4,17,0.6,34.2-1.2,51.1
		c-3.6,34.3-34.5,62-69,62.3c-43.9,0.4-87.7,0.3-131.6,0C310.6,556,291,544.2,275.1,522.4z"/>
	<path fill="#FFFFFF" d="M535.5,555.8c0-6.7,0-13.2,0-20.3c34.5,0,68.9,0,103.8,0c0-73.1,0-145.6,0-218.8c6.6,0,12.7-0.2,18.7,0.2
		c0.9,0.1,2.2,2.7,2.3,4.1c0.2,11.8,0.1,23.7,0.1,35.5c0,22.8,0,45.6,0,68.4c0,1.9,0,3.7,0,5.9c34.8,0,69,0,104,0c0-1.9,0-3.8,0-5.6
		c0-35.9,0-71.7,0-107.6c0-30.4-22.7-53.1-53.2-53.1c-39.7-0.1-79.4,0.8-119.1-0.3c-30.7-0.9-56,20.9-57.2,52.1
		c-6.7,0-13.3,0-18.5,0c-3.6-9.6-5.8-19.3-10.7-27.5c-9.5-15.9-24.4-24.2-43-24.3c-42.3-0.3-84.6-0.3-126.9,0
		c-28.1,0.2-50.8,23.5-50.9,51.6c-0.1,10.8,0.1,21.6-0.1,32.4c-0.1,3.8,1.1,6.5,3.8,9.1c38.1,38,76.1,76,114.1,114
		c1.3,1.3,2.6,2.7,4,4.2c-5.1,4.8-10,9.4-15.1,14.3c-0.9-0.9-2.2-2-3.4-3.2c-40.1-40.1-80.2-80.3-120.4-120.3
		c-2.8-2.8-4.1-5.5-4-9.5c0.3-15.5-1-31.1,0.5-46.4c3.8-38,32.9-65.9,71.1-66.9c43.3-1.1,86.7-0.6,130,0.1
		c24,0.4,42.8,11.9,56.7,31.3c0.7,0.9,1.4,1.9,1.6,2.1c7.2-7,13.8-14.5,21.5-20.4c12.2-9.4,26.6-13.4,42-13.4
		c41.3,0,82.5-0.2,123.8,0.1c37.4,0.2,66.5,24.6,73.2,61c0.7,3.7,0.9,7.6,0.9,11.4c0.1,43.7,0,87.4,0,131.1c0,1.4-0.1,2.8-0.3,4.9
		c-41.4,0-82.7,0-124.5,0c0,35,0,69.2,0,103.9C618.7,555.8,577.4,555.8,535.5,555.8z"/>
</g>
</svg>
